<svg width="40" height="40" viewBox="0 0 40 40" fill="none" xmlns="http://www.w3.org/2000/svg">
<path d="M17.5001 13.3334H22.5001M11.2668 36.6667H28.7335C33.3335 36.6667 35.1668 33.85 35.3835 30.4167L36.2501 16.65C36.4835 13.05 33.6168 10 30.0001 10C28.9835 10 28.0501 9.41671 27.5835 8.51671L26.3835 6.10004C25.6168 4.58337 23.6168 3.33337 21.9168 3.33337H18.1001C16.3835 3.33337 14.3835 4.58337 13.6168 6.10004L12.4168 8.51671C11.9501 9.41671 11.0168 10 10.0001 10C6.38345 10 3.51678 13.05 3.75012 16.65L4.61678 30.4167C4.81678 33.85 6.66678 36.6667 11.2668 36.6667ZM20.0001 30C22.9835 30 25.4168 27.5667 25.4168 24.5834C25.4168 21.6 22.9835 19.1667 20.0001 19.1667C17.0168 19.1667 14.5835 21.6 14.5835 24.5834C14.5835 27.5667 17.0168 30 20.0001 30Z" stroke="#0E373C" stroke-miterlimit="10" stroke-linecap="round" stroke-linejoin="round"/>
</svg>
